PathFileType	4	(X/Y/Z)	/Users/itak/Documents/Research/Walk-IL/dataset/trc/00548_00009.trc
DataRate	CameraRate	NumFrames	NumMarkers	Units	OrigDataRate	OrigDataStartFrame	OrigNumFrames
100.000000	100.000000	4	53	mm	100.000000	399	457
Frame#	Time	RPSI			LPSI			L3			STRN			T10			C7			CLAV			RBAK			LBAK			LSHO			LUPA			LAEL			LAOL			LWTS			LWPS			LFRA			LHPS			LHTS			RSHO			RUPA			RAEL			RAOL			RWTS			RWPS			RFRA			RIFD			RHTS			RHPS			RBHD			LFHD			RFHD			LBHD			LHIP			RHIP			RASI			LASI			LKNE			LTHI			LANK			LTIP			LTOE			LMT1			LMT5			LHEE			RKNE			RTHI			RANK			RTIP			RTOE			RMT1			RMT5			RHEE			LIFD			
		X1	Y1	Z1	X2	Y2	Z2	X3	Y3	Z3	X4	Y4	Z4	X5	Y5	Z5	X6	Y6	Z6	X7	Y7	Z7	X8	Y8	Z8	X9	Y9	Z9	X10	Y10	Z10	X11	Y11	Z11	X12	Y12	Z12	X13	Y13	Z13	X14	Y14	Z14	X15	Y15	Z15	X16	Y16	Z16	X17	Y17	Z17	X18	Y18	Z18	X19	Y19	Z19	X20	Y20	Z20	X21	Y21	Z21	X22	Y22	Z22	X23	Y23	Z23	X24	Y24	Z24	X25	Y25	Z25	X26	Y26	Z26	X27	Y27	Z27	X28	Y28	Z28	X29	Y29	Z29	X30	Y30	Z30	X31	Y31	Z31	X32	Y32	Z32	X33	Y33	Z33	X34	Y34	Z34	X35	Y35	Z35	X36	Y36	Z36	X37	Y37	Z37	X38	Y38	Z38	X39	Y39	Z39	X40	Y40	Z40	X41	Y41	Z41	X42	Y42	Z42	X43	Y43	Z43	X44	Y44	Z44	X45	Y45	Z45	X46	Y46	Z46	X47	Y47	Z47	X48	Y48	Z48	X49	Y49	Z49	X50	Y50	Z50	X51	Y51	Z51	X52	Y52	Z52	X53	Y53	Z53	

400	3.99	1322.46435546875	1011.631958007812	328.5462951660156	1347.15673828125	1015.107299804688	197.0226287841797	1338.310546875	1106.513549804688	258.9709777832031	1566.736206054688	1300.702392578125	291.1953125	1328.90966796875	1231.962646484375	252.9846649169922	1370.228149414062	1506.584228515625	272.9157104492188	1545.768432617188	1411.683837890625	289.236572265625	1290.229370117188	1381.430786132812	346.674072265625	1351.437255859375	1452.634399414062	176.6329040527344	1459.141723632812	1482.8017578125	113.8742141723633	1479.406005859375	1361.079956054688	31.21904563903809	1552.131958007812	1151.54931640625	7.386689186096191	1460.929443359375	1119.262573242188	37.43492126464844	1697.622314453125	943.5357055664062	72.83373260498047	1675.927490234375	912.0933227539062	-5.480971336364746	1597.7734375	1075.155029296875	5.264611721038818	1701.496948242188	857.5820922851562	3.99042534828186	1740.153564453125	876.6624755859375	56.72525787353516	1406.88427734375	1472.058837890625	434.5140380859375	1379.6611328125	1408.009765625	498.5038146972656	1374.682250976562	1121.289184570312	548.1560668945312	1323.830444335938	1099.04833984375	516.6704711914062	1544.532836914062	928.163330078125	523.95166015625	1496.219604492188	897.2395629882812	582.741943359375	1390.811157226562	1067.3857421875	557.1077270507812	1588.060180664062	759.7080078125	529.7251586914062	1586.519897460938	843.0504150390625	540.1907958984375	1526.4287109375	827.0586547851562	581.0363159179688	1445.21044921875	1691.750610351562	352.0797729492188	1612.2666015625	1712.20458984375	230.0458526611328	1583.003173828125	1709.982299804688	372.0125427246094	1485.452514648438	1692.392944335938	192.0520477294922	1499.070068359375	940.7542724609375	89.65605163574219	1427.098999023438	943.4435424804688	470.2527160644531	1520.633056640625	979.2865600585938	429.7299499511719	1562.926391601562	968.719482421875	157.2572784423828	1561.919189453125	502.6674194335938	178.5266571044922	1548.624145507812	666.1238403320312	137.1675262451172	1511.123168945312	29.49234008789062	205.2064666748047	1519.78955078125	249.5940399169922	184.6024169921875	1710.034912109375	39.96302032470703	296.3291320800781	1633.47900390625	45.47736740112305	317.7164306640625	1634.725952148438	33.94970321655273	207.8080902099609	1436.883422851562	39.14373016357422	246.2498779296875	1508.205688476562	505.5705261230469	449.9239196777344	1480.6904296875	792.7324829101562	473.299560546875	1278.133544921875	77.85616302490234	409.0474853515625	1466.319458007812	364.811767578125	437.9031677246094	1492.808471679688	61.91058349609375	427.254638671875	1445.147094726562	61.64117050170898	370.9385681152344	1395.431274414062	59.90262222290039	463.0508117675781	1241.655395507812	81.94964599609375	340.5240478515625	1750.9404296875	781.6944580078125	66.72978210449219	
401	4	1326.069091796875	1012.101989746094	328.7263793945312	1350.836059570312	1015.594543457031	197.2446746826172	1342.048461914062	1107.085205078125	259.0348205566406	1570.859497070312	1300.924926757812	291.627685546875	1332.911743164062	1232.497924804688	253.0077514648438	1374.660278320312	1507.042724609375	272.9480895996094	1550.052124023438	1411.943603515625	289.6699829101562	1294.385498046875	1382.052368164062	346.6157836914062	1355.966674804688	1453.104614257812	176.6262664794922	1463.925659179688	1483.164306640625	114.1394119262695	1484.784301757812	1361.486083984375	31.71851539611816	1558.929565429688	1152.4296875	8.25989818572998	1467.8212890625	1119.571655273438	37.87753677368164	1705.25341796875	945.1077270507812	74.10191345214844	1684.0185546875	913.6443481445312	-4.362927436828613	1604.983642578125	1076.265502929688	6.27113676071167	1709.876342773438	859.2669677734375	5.157215118408203	1748.252685546875	878.5448608398438	58.04069900512695	1410.8525390625	1472.638916015625	434.5871276855469	1383.633666992188	1408.605834960938	498.5741882324219	1379.0029296875	1121.909790039062	548.2733764648438	1328.19091796875	1099.50537109375	516.80615234375	1549.584594726562	929.4940795898438	524.0831298828125	1501.362670898438	898.3131713867188	582.7725219726562	1395.245483398438	1068.04736328125	557.1566162109375	1593.793334960938	761.2058715820312	529.66796875	1591.800415039062	844.5355834960938	540.2042846679688	1531.866821289062	828.258056640625	581.0689697265625	1449.52685546875	1692.156616210938	352.0418090820312	1616.671508789062	1712.479858398438	230.12548828125	1587.337280273438	1710.492431640625	372.1943969726562	1489.869506835938	1692.597534179688	192.0999755859375	1502.2578125	940.8858642578125	89.84305572509766	1430.638549804688	943.90869140625	470.5087585449219	1524.224243164062	979.8330688476562	429.952880859375	1566.70068359375	968.889892578125	157.6201171875	1562.503173828125	502.3367919921875	178.3269653320312	1550.389892578125	666.0143432617188	137.1604614257812	1510.823608398438	28.36681175231934	205.9304809570312	1519.796142578125	249.5732116699219	184.27392578125	1710.01953125	39.94661712646484	296.2672729492188	1633.387084960938	45.40581893920898	317.5983581542969	1634.690795898438	33.89248275756836	207.7585601806641	1436.842529296875	39.30553817749023	246.0564422607422	1514.900268554688	506.5157470703125	449.6440734863281	1484.10595703125	793.263671875	473.5218811035156	1293.5244140625	74.21913909912109	412.3804626464844	1475.777954101562	364.9087219238281	438.564208984375	1508.710815429688	62.42649078369141	429.6426696777344	1460.656860351562	61.0105094909668	373.6982116699219	1411.27490234375	59.16020584106445	465.9229431152344	1256.532958984375	76.95777130126953	344.0345153808594	1759.560180664062	783.5724487304688	67.96067047119141	
402	4.01	1329.59814453125	1012.554382324219	328.9723205566406	1354.396118164062	1016.064758300781	197.5279998779297	1345.680053710938	1107.632080078125	259.1494445800781	1574.8955078125	1301.123168945312	292.0656127929688	1336.758422851562	1233.014038085938	253.0909729003906	1379.007934570312	1507.482543945312	273.0310363769531	1554.257568359375	1412.179443359375	290.1081237792969	1298.503295898438	1382.65234375	346.6404418945312	1360.39404296875	1453.566162109375	176.6696319580078	1468.601440429688	1483.517944335938	114.4437942504883	1490.03466796875	1361.881469726562	32.2586669921875	1565.490966796875	1153.260009765625	9.213757514953613	1474.469360351562	1119.896606445312	38.41648483276367	1712.519409179688	946.5377807617188	75.46687316894531	1691.727783203125	915.076171875	-3.174609899520874	1611.908325195312	1077.300659179688	7.368433952331543	1717.82275390625	860.8353271484375	6.392876625061035	1755.929565429688	880.255126953125	59.45173645019531	1414.77734375	1473.201538085938	434.7080993652344	1387.5654296875	1409.185424804688	498.6886291503906	1383.221069335938	1122.519409179688	548.4154052734375	1332.446655273438	1099.97412109375	516.9529418945312	1554.373413085938	930.6591796875	524.2367553710938	1506.237548828125	899.288330078125	582.8521728515625	1399.544067382812	1068.682739257812	557.220703125	1599.176147460938	762.530517578125	529.685546875	1596.779296875	845.8408203125	540.2857666015625	1536.997802734375	829.348388671875	581.1339721679688	1453.753173828125	1692.529418945312	352.0404663085938	1620.984497070312	1712.731689453125	230.2362213134766	1591.587036132812	1710.972045898438	372.4143981933594	1494.189819335938	1692.7802734375	192.1873779296875	1505.381469726562	940.9959106445312	90.06230163574219	1434.071655273438	944.3878784179688	470.8286437988281	1527.750732421875	980.3585815429688	430.1471252441406	1570.37255859375	969.0332641601562	157.9785614013672	1563.05517578125	502.0064086914062	178.1720428466797	1552.066040039062	665.8947143554688	137.1504669189453	1510.5517578125	27.34883880615234	206.5961456298828	1519.800903320312	249.550048828125	183.9632415771484	1710.010009765625	39.95415878295898	296.2042541503906	1633.298461914062	45.33967971801758	317.4822998046875	1634.6591796875	33.83487319946289	207.7083587646484	1436.814208984375	39.51987075805664	245.8491821289062	1521.470825195312	507.4529418945312	449.4816589355469	1487.4658203125	793.7723999023438	473.7164611816406	1308.595947265625	70.90725708007812	415.5095520019531	1485.090087890625	365.0810852050781	439.2366943359375	1524.205810546875	63.04451751708984	431.5051574707031	1475.714965820312	60.58187484741211	375.9503784179688	1426.826293945312	58.53731155395508	468.3968811035156	1271.045532226562	72.43762969970703	347.4045715332031	1767.679443359375	785.27783203125	69.27778625488281	
403	4.02	1333.060913085938	1012.987854003906	329.2897033691406	1357.840698242188	1016.51513671875	197.8734588623047	1349.21630859375	1108.152221679688	259.3086242675781	1578.848754882812	1301.29541015625	292.5061340332031	1340.466674804688	1233.50927734375	253.2406311035156	1383.274658203125	1507.900634765625	273.1654052734375	1558.388793945312	1412.390625	290.5495910644531	1302.581665039062	1383.224365234375	346.7474060058594	1364.723266601562	1454.016723632812	176.7623138427734	1473.166259765625	1483.856689453125	114.788215637207	1495.152587890625	1362.259643554688	32.83803176879883	1571.81298828125	1154.031372070312	10.2409553527832	1480.86572265625	1120.228637695312	39.0410270690918	1719.418701171875	947.8236083984375	76.92970275878906	1699.057861328125	916.3796997070312	-1.909457206726074	1618.546630859375	1078.253051757812	8.55123233795166	1725.340087890625	862.27587890625	7.70871639251709	1763.182006835938	881.7811889648438	60.97056198120117	1418.677856445312	1473.740356445312	434.8828125	1391.4658203125	1409.741577148438	498.8557434082031	1387.332885742188	1123.110229492188	548.5953369140625	1336.59228515625	1100.44775390625	517.1253662109375	1558.892211914062	931.6509399414062	524.402587890625	1510.841674804688	900.1568603515625	582.9823608398438	1403.712036132812	1069.2822265625	557.3162841796875	1604.211791992188	763.6728515625	529.7877197265625	1601.477783203125	846.9752807617188	540.4419555664062	1541.820190429688	830.3176879882812	581.2337646484375	1457.892822265625	1692.869750976562	352.0826416015625	1625.20654296875	1712.960815429688	230.3802642822266	1595.74951171875	1711.41064453125	372.6500549316406	1498.416137695312	1692.942749023438	192.31298828125	1508.42578125	941.08447265625	90.31168365478516	1437.4453125	944.8767700195312	471.2105102539062	1531.227783203125	980.8538208007812	430.3153686523438	1573.909912109375	969.1195068359375	158.2877655029297	1563.586303710938	501.6809692382812	178.0572967529297	1553.663208007812	665.7647094726562	137.1359710693359	1510.33447265625	26.5479736328125	207.1252593994141	1519.808837890625	249.5161437988281	183.6790771484375	1710.012573242188	39.98165893554688	296.1348571777344	1633.21923828125	45.29024505615234	317.3800964355469	1634.634399414062	33.78403854370117	207.6623229980469	1436.796020507812	39.75188446044922	245.6462249755859	1527.906127929688	508.3637390136719	449.4584350585938	1490.780883789062	794.2489624023438	473.8873901367188	1323.330810546875	67.86747741699219	418.4141540527344	1494.210083007812	365.3255615234375	439.9397277832031	1539.274047851562	63.79837417602539	432.8208923339844	1490.31689453125	60.36238861083984	377.6568603515625	1442.10107421875	57.98927307128906	470.4371948242188	1285.178466796875	68.34620666503906	350.5995483398438	1775.299682617188	786.8062744140625	70.70103454589844	
